<svg id="ic-mobile-gps-on" xmlns="http://www.w3.org/2000/svg" width="24" height="24" viewBox="0 0 24 24">
  <rect id="Rectangle_330" data-name="Rectangle 330" width="24" height="24" fill="none"/>
  <g id="ic-mobile-gps-on-2" data-name="ic-mobile-gps-on">
    <path id="Path_729" data-name="Path 729" d="M22.5,11H20.94A9,9,0,0,0,13,3.06V1.5a1,1,0,0,0-2,0V3.06A9,9,0,0,0,3.06,11H1.5a1,1,0,0,0,0,2H3.06A9,9,0,0,0,11,20.94V22.5a1,1,0,0,0,2,0V20.94A9,9,0,0,0,20.94,13H22.5a1,1,0,0,0,0-2ZM12,19a7,7,0,1,1,7-7,7,7,0,0,1-7,7Z" fill="#111"/>
    <path id="Path_730" data-name="Path 730" d="M12,7a5,5,0,1,0,5,5A5,5,0,0,0,12,7Zm0,8a3,3,0,1,1,3-3A3,3,0,0,1,12,15Z" fill="#111"/>
  </g>
</svg>
