<svg id="ic-weather-drop" xmlns="http://www.w3.org/2000/svg" width="24" height="24" viewBox="0 0 24 24">
  <rect id="Rectangle_254" data-name="Rectangle 254" width="24" height="24" fill="none"/>
  <g id="Layer" transform="translate(0.007 0.009)">
    <path id="Path_516" data-name="Path 516" d="M8.11,6.39,6,1.61a1,1,0,0,0-1.85,0L2.08,6.39a3.29,3.29,0,1,0,6,0ZM5.09,9A1.29,1.29,0,0,1,3.91,7.2L5.09,4.5,6.28,7.2A1.29,1.29,0,0,1,5.09,9Z" fill="#111" fill-rule="evenodd"/>
    <path id="Path_517" data-name="Path 517" d="M19.52,1.61a1,1,0,0,0-1.85,0L15.31,6.93a3.6,3.6,0,1,0,6.57,0ZM18.59,10a1.6,1.6,0,0,1-1.46-2.24l1.46-3.29,1.47,3.29A1.6,1.6,0,0,1,18.59,10Z" fill="#111" fill-rule="evenodd"/>
    <path id="Path_518" data-name="Path 518" d="M12.5,9.57a1,1,0,0,0-1.81,0L7.38,16.18a4.71,4.71,0,1,0,8.43,0ZM11.59,21a2.71,2.71,0,0,1-2.42-3.92l2.42-4.84L14,17.08A2.7,2.7,0,0,1,11.59,21Z" fill="#111" fill-rule="evenodd"/>
  </g>
</svg>
