<svg id="ic-weather-temperature" xmlns="http://www.w3.org/2000/svg" width="30" height="30" viewBox="0 0 30 30">
  <rect id="Rectangle_258" data-name="Rectangle 258" width="30" height="30" fill="none"/>
  <g id="Layer" transform="translate(8.726 1.18)">
    <g id="Vrstva_220" data-name="Vrstva 220">
      <path id="Path_522" data-name="Path 522" d="M8.245,11.981V6.006a4.875,4.875,0,0,1,1.25-3.238A4.8,4.8,0,0,1,13.77,1.006a5,5,0,0,1,4.363,4,4.675,4.675,0,0,1,.112,1V18.331a.575.575,0,0,0,.112.337A6.25,6.25,0,1,1,7.695,25.093a6.175,6.175,0,0,1,0-5.613,8.225,8.225,0,0,1,.5-.838.538.538,0,0,0,.05-.338Zm7.5.563V6.006A2.425,2.425,0,0,0,14.37,3.743a2.4,2.4,0,0,0-2.612.225,2.5,2.5,0,0,0-1.013,2.113V19.018a.887.887,0,0,1-.25.675,3.6,3.6,0,0,0-1,3.1,3.8,3.8,0,0,0,7.5-1.175,3.925,3.925,0,0,0-1.075-2.062.488.488,0,0,1-.137-.337C15.745,16.993,15.745,14.756,15.745,12.543Z" transform="translate(-7.02 -0.976)" fill="#fff"/>
      <path id="Path_523" data-name="Path 523" d="M13.751,14.455v3.2a.262.262,0,0,0,.137.25,2.536,2.536,0,1,1-2.7,0,.262.262,0,0,0,.137-.25v-6.4a1.213,1.213,0,1,1,2.425,0Z" transform="translate(-6.277 1.275)" fill="#fff"/>
    </g>
  </g>
</svg>
