<svg id="ic-weather-wind-storm" xmlns="http://www.w3.org/2000/svg" width="24" height="24" viewBox="0 0 24 24">
  <rect id="Rectangle_261" data-name="Rectangle 261" width="24" height="24" fill="none"/>
  <g id="Layer" transform="translate(-0.001 0.013)">
    <g id="Vrstva_190" data-name="Vrstva 190">
      <path id="Path_530" data-name="Path 530" d="M18.12,6.13A6.92,6.92,0,0,0,12,2,6.92,6.92,0,0,0,5.88,6.1C1.9,6.88-.69,11.56,2.29,16a2.74,2.74,0,0,0,.71.73A6.81,6.81,0,0,0,8,18V16a4.48,4.48,0,0,1-3.57-.67,2.14,2.14,0,0,1-.55-.53C1.76,11.59,3.77,8.29,6.65,8h.62l.23-.57A5,5,0,0,1,12,4a5,5,0,0,1,4.5,3.39l.23.57h.62a4.09,4.09,0,0,1,2.76,6.66,1.74,1.74,0,0,1-.55.53A4.46,4.46,0,0,1,16,15.9v2a6.82,6.82,0,0,0,5-1.23,2.94,2.94,0,0,0,.72-.73C24.69,11.56,22.1,6.88,18.12,6.13Z" fill="#fff" fill-rule="evenodd"/>
      <path id="Path_531" data-name="Path 531" d="M13.11,15.73h-1.8l2-3.23a1,1,0,0,0-1.7-1.06l-2.8,4.45a1.2,1.2,0,0,0,1,1.84h1.71L9.68,20.39a1,1,0,0,0,1.64,1.16l2.77-3.93a1.19,1.19,0,0,0-.98-1.89Z" fill="#fff" fill-rule="evenodd"/>
    </g>
  </g>
</svg>
