<svg id="ic-weather-moon" xmlns="http://www.w3.org/2000/svg" width="24" height="24" viewBox="0 0 24 24">
  <rect id="Rectangle_255" data-name="Rectangle 255" width="24" height="24" fill="none"/>
  <g id="Layer" transform="translate(-0.567 0.66)">
    <g id="Vrstva_4" data-name="Vrstva 4">
      <path id="Path_519" data-name="Path 519" d="M9.74,3.51a9,9,0,0,0,8.34,15.93A12,12,0,0,1,10.34,3.18C10.14,3.29,9.94,3.39,9.74,3.51ZM4.87,16.86A11,11,0,0,1,12.3.44a1,1,0,0,1,1,1.57,10,10,0,0,0,7.56,15.88,1,1,0,0,1,.59,1.76A11,11,0,0,1,4.87,16.86Z" fill="#fff" fill-rule="evenodd"/>
    </g>
  </g>
</svg>
